<svg width="280" height="280" viewBox="0 0 280 280" fill="none" xmlns="http://www.w3.org/2000/svg">
<circle cx="139.908" cy="139.908" r="115" transform="rotate(14.3456 139.908 139.908)" fill="url(#paint0_radial_737_56)"/>
<path d="M165.844 100.626C166.395 99.8381 167.24 99.3044 168.189 99.1452L174.848 98.0277C176.555 97.7412 178.293 97.681 180.016 97.8488L182.425 98.0834C186.231 98.4541 189.959 99.3975 193.483 100.882L196.989 102.359C197.961 102.768 198.876 103.299 199.712 103.94L204.999 107.991C206.379 109.048 206.867 110.906 206.184 112.504V112.504C205.29 114.597 202.77 115.442 200.795 114.31L195.561 111.312L192.394 109.939C188.146 108.097 183.651 106.891 179.052 106.358L174.419 105.82C174.018 105.774 173.613 105.772 173.212 105.815L169.166 106.25C166.104 106.579 164.078 103.15 165.844 100.626V100.626Z" fill="black"/>
<path d="M102.678 84.7698C103.325 84.0559 104.232 83.632 105.194 83.5932L112.01 83.3185C113.742 83.2487 115.476 83.4061 117.167 83.7865L119.568 84.3267C123.326 85.1722 126.937 86.5763 130.279 88.492L133.625 90.4094C134.537 90.9321 135.379 91.5683 136.131 92.3028L140.943 97.0047C142.191 98.224 142.45 100.136 141.571 101.643V101.643C140.427 103.606 137.829 104.135 136.008 102.776L131.1 99.1135L128.097 97.3509C124.074 94.9894 119.728 93.2275 115.196 92.1209L110.62 91.0037C110.228 90.908 109.826 90.8559 109.423 90.8483L105.272 90.7709C102.189 90.7134 100.608 87.0542 102.678 84.7698V84.7698Z" fill="black"/>
<rect x="107.491" y="99.1598" width="33.4407" height="8.16129" rx="4.08065" transform="rotate(42.3242 107.491 99.1598)" fill="black"/>
<rect x="96.3345" y="119.327" width="33.4407" height="8.16129" rx="4.08064" transform="rotate(-0.407537 96.3345 119.327)" fill="black"/>
<circle cx="181.313" cy="136.712" r="18.5484" transform="rotate(14.3456 181.313 136.712)" fill="url(#paint1_radial_737_56)"/>
<circle cx="186.01" cy="133.319" r="11.129" transform="rotate(14.3456 186.01 133.319)" fill="black"/>
<ellipse cx="134.168" cy="169.838" rx="13.7258" ry="17.0645" transform="rotate(21.8767 134.168 169.838)" fill="url(#paint2_linear_737_56)"/>
<defs>
<radialGradient id="paint0_radial_737_56" cx="0" cy="0" r="1" gradientUnits="userSpaceOnUse" gradientTransform="translate(139.908 139.908) rotate(90) scale(115)">
<stop offset="0.87" stop-color="#FFC700"/>
<stop offset="0.975" stop-color="#CC9F00"/>
<stop offset="1" stop-color="#997700"/>
</radialGradient>
<radialGradient id="paint1_radial_737_56" cx="0" cy="0" r="1" gradientUnits="userSpaceOnUse" gradientTransform="translate(181.313 136.712) rotate(90) scale(18.5484)">
<stop offset="0.9499" stop-color="white"/>
<stop offset="0.95" stop-color="#CCCCCC"/>
<stop offset="1" stop-color="#999999"/>
</radialGradient>
<linearGradient id="paint2_linear_737_56" x1="133.319" y1="186.903" x2="131.283" y2="152.998" gradientUnits="userSpaceOnUse">
<stop offset="0.515" stop-color="#BA0000"/>
<stop offset="1" stop-color="#540000"/>
</linearGradient>
</defs>
</svg>
