<svg width="460" height="460" viewBox="0 0 460 460" fill="none" xmlns="http://www.w3.org/2000/svg">
<rect width="460" height="460" fill="black"/>
<path d="M283.962 240H256.385V165.484L249 166.426V147.002C259.154 145.59 277.5 143 287.769 143C312.462 143 339 160.658 339 190.558C339 220.459 312.923 240 283.962 240ZM278.885 168.192V212.925H281.769C295.385 212.925 310.846 212.454 310.846 190.558C310.846 168.663 295.385 167.956 285.462 167.956C283.5 167.956 281.192 168.074 278.885 168.192Z" fill="#E4FF0D"/>
<path d="M224.4 229.2V302.2C224.4 307.4 224.2 310.1 227.4 310.5C229.2 310.7 231.7 310 233.5 309.4L237.5 312C239.5 322.6 233.4 344.8 208 343.2C191.8 342.2 185.4 331 185.4 309.4V229.2H224.4ZM180.8 196.4C180.8 183.2 191 174 204.8 174C218.6 174 228.8 183.2 228.8 196.4C228.8 209.6 218.6 218.8 204.8 218.8C191 218.8 180.8 209.6 180.8 196.4Z" fill="#E4FF0D"/>
</svg>
