<svg width="23" height="24" viewBox="0 0 23 24" fill="none" xmlns="http://www.w3.org/2000/svg">
<path d="M12.458 8.64583H8.62467C6.77222 8.64583 5.27051 7.14412 5.27051 5.29167C5.27051 3.43921 6.77222 1.9375 8.62467 1.9375H12.458V8.64583Z" fill="#E64A19"/>
<path d="M11.9788 15.3541H8.62467C6.77222 15.3541 5.27051 13.8524 5.27051 11.9999C5.27051 10.1475 6.77222 8.64575 8.62467 8.64575H11.9788V15.3541Z" fill="#7C4DFF"/>
<path d="M8.62467 22.0626C6.77222 22.0626 5.27051 20.5609 5.27051 18.7084C5.27051 16.856 6.77222 15.3542 8.62467 15.3542H11.9788V18.7084C11.9788 20.5609 10.4771 22.0626 8.62467 22.0626Z" fill="#66BB6A"/>
<path d="M15.3337 8.64583H11.9795V1.9375H15.3337C17.1861 1.9375 18.6878 3.43921 18.6878 5.29167C18.6878 7.14412 17.1861 8.64583 15.3337 8.64583Z" fill="#FF7043"/>
<path d="M15.3337 15.3541C17.1861 15.3541 18.6878 13.8524 18.6878 11.9999C18.6878 10.1475 17.1861 8.64575 15.3337 8.64575C13.4812 8.64575 11.9795 10.1475 11.9795 11.9999C11.9795 13.8524 13.4812 15.3541 15.3337 15.3541Z" fill="#29B6F6"/>
</svg>
