<svg width="93" height="35" viewBox="0 0 93 35" fill="none" xmlns="http://www.w3.org/2000/svg">
<g clip-path="url(#clip0_1081_134)">
<path d="M74.8617 0C84.5093 0 92.3333 7.83667 92.3333 17.5C92.3333 27.1633 84.5093 35 74.8617 35H17.4716C7.82397 35 0 27.1633 0 17.5C0 7.83667 7.82397 0 17.4716 0H74.8617Z" fill="#00DE5A"/>
<path d="M17.5006 30.1867C10.4939 30.1867 4.81396 24.5067 4.81396 17.5C4.81396 10.4934 10.4939 4.81335 17.5006 4.81335C24.5073 4.81335 30.1873 10.4934 30.1873 17.5C30.1906 24.5067 24.5106 30.1867 17.5006 30.1867ZM19.9506 11.1534V18.1301L15.0473 11.1534H11.1573V23.8401H15.054V16.8634L19.9573 23.8401H23.8473V11.1534H19.9506Z" fill="black"/>
<path d="M80.3034 9.43997L76.5434 18.06L72.39 9.43997H68.5967L74.8834 21.6733L72.3567 27.34H75.94L83.8834 9.43997H80.3034ZM63.3067 23.1566H66.7034V9.43663H63.3067V10.5633C62.14 9.6233 60.82 9.1333 59.22 9.1333C55.3567 9.1333 52.33 12.3066 52.33 16.2933C52.33 20.28 55.3567 23.4533 59.22 23.4533C60.82 23.4533 62.14 22.9633 63.3067 22.0233V23.1566ZM59.7134 20.6766C57.44 20.6766 55.73 18.7966 55.73 16.3C55.73 13.8033 57.4434 11.9233 59.7134 11.9233C61.9834 11.9233 63.6967 13.8033 63.6967 16.3C63.7 18.7933 61.9867 20.6766 59.7134 20.6766ZM39.71 22.0966C40.8534 22.9933 42.1334 23.46 43.6767 23.46C47.54 23.46 50.5667 20.2866 50.5667 16.3C50.5667 12.3133 47.54 9.13997 43.6767 9.13997C42.0767 9.13997 40.7567 9.62997 39.59 10.57V9.4433H36.1934V27.3433H39.7067V22.0966H39.71ZM39.2 16.3C39.2 13.8033 40.9134 11.9233 43.1834 11.9233C45.4534 11.9233 47.1667 13.8033 47.1667 16.3C47.1667 18.7966 45.4534 20.6766 43.1834 20.6766C40.9134 20.6766 39.2 18.7933 39.2 16.3Z" fill="black"/>
</g>
<defs>
<clipPath id="clip0_1081_134">
<rect width="92.3333" height="35" fill="white"/>
</clipPath>
</defs>
</svg>



