<svg width="22" height="22" viewBox="0 0 22 22" fill="none" xmlns="http://www.w3.org/2000/svg">
<path d="M14.3106 0.00708023L0.501107 1.00718C0.496883 1.00749 0.492663 1.00784 0.488447 1.00824C0.481394 1.00915 0.47436 1.01021 0.467348 1.0114C0.454264 1.01304 0.441244 1.01515 0.428315 1.01773C0.423019 1.01906 0.417743 1.02047 0.41249 1.02195C0.406488 1.02326 0.400509 1.02466 0.394556 1.02617C0.381389 1.0299 0.368368 1.03412 0.355522 1.03883C0.346995 1.04213 0.338552 1.04565 0.330203 1.04938C0.325249 1.05142 0.320325 1.05353 0.315434 1.05571C0.287065 1.06881 0.259886 1.08434 0.234202 1.10213C0.229588 1.10488 0.225016 1.10769 0.220487 1.11057C0.209248 1.11893 0.198338 1.12773 0.187783 1.13694C0.185656 1.13904 0.183546 1.14115 0.181453 1.14327C0.172396 1.15107 0.1636 1.15916 0.155079 1.16754C0.149673 1.1734 0.144397 1.17938 0.139255 1.18547C0.131217 1.19436 0.123476 1.2035 0.116046 1.2129C0.113189 1.21638 0.110375 1.2199 0.107606 1.22345C0.0994456 1.23441 0.0917037 1.24567 0.084397 1.25721C0.082247 1.2607 0.080137 1.26422 0.0780672 1.26776C0.0709564 1.27911 0.0642704 1.29072 0.0580229 1.30257C0.0554862 1.30746 0.0530244 1.31238 0.0506382 1.31734C0.0448579 1.33014 0.0395791 1.34316 0.0348137 1.35638C0.0341043 1.35778 0.033401 1.35919 0.0327038 1.3606C0.0218172 1.3911 0.0136965 1.42253 0.0084397 1.45449C0.00729535 1.4601 0.00624027 1.46572 0.00527481 1.47137C0.00328857 1.48572 0.00188082 1.50015 0.00105496 1.51462V1.51673C0.000433948 1.52657 8.21534e-05 1.53642 0 1.54627V15.4486C0 16.0025 0.170228 16.5443 0.488447 16.9983C0.496766 17.0103 0.505564 17.0219 0.514821 17.0331L3.84956 21.0462C3.88173 21.1041 3.92429 21.1556 3.9751 21.1981L4.18609 21.4513C4.21287 21.4835 4.24332 21.5126 4.27682 21.5378C4.59394 21.8455 5.03258 22.0271 5.50585 21.9967L20.0896 21.0557C20.9372 21.0009 21.6056 20.2875 21.6056 19.4384V5.39899C21.6056 4.90019 21.3709 4.45799 21.0138 4.16046C20.9885 4.13152 20.9602 4.10535 20.9294 4.0824L20.6678 3.88934C20.635 3.85817 20.5985 3.83124 20.5591 3.80916L16.1093 0.527176C15.5912 0.144868 14.9525 -0.0394996 14.3106 0.00708023ZM14.3886 1.0842C14.774 1.05624 15.1574 1.16733 15.4679 1.39646L18.7794 3.83976L5.26215 4.72487C4.79675 4.75525 4.34148 4.58305 4.01097 4.2533H4.00991L1.75757 1.9999L14.3886 1.0842ZM1.08028 2.8502L3.24717 5.01709L3.78098 5.5509V19.2728L1.37145 16.3727C1.18287 16.1017 1.08028 15.7797 1.08028 15.4486V2.8502ZM19.9504 4.8599C20.2697 4.83941 20.5253 5.07941 20.5253 5.39899V19.4384C20.5253 19.7279 20.3089 19.9588 20.02 19.9775L5.43622 20.9185C5.27764 20.9287 5.13477 20.8744 5.03111 20.7782L5.03006 20.7772L5.029 20.7761C5.0268 20.774 5.0259 20.7708 5.02373 20.7687C5.02165 20.7659 5.01954 20.7631 5.0174 20.7603C4.92189 20.6637 4.86126 20.5319 4.86126 20.3794V6.34002C4.86126 6.04971 5.07732 5.81963 5.36659 5.80093L19.9504 4.8599ZM18.0926 7.48781L15.3518 7.63973C14.9337 7.68294 14.4466 7.99447 14.4466 8.50058L15.662 8.60185V14.3767L11.459 7.89397L8.30888 8.07121C7.71959 8.11442 7.5588 8.55241 7.5588 9.10929H8.77412V17.5163C8.77412 17.5163 8.20573 17.6697 8.0156 17.7188C7.61158 17.8231 7.5588 18.1744 7.5588 18.4278C7.5588 18.4278 9.58569 18.326 10.518 18.2558C11.5761 18.1748 11.6109 17.4656 11.6109 17.4656L10.3956 17.2125V10.9829C10.3956 10.9829 13.4851 15.9466 14.4298 17.4055C14.8743 18.0909 15.2062 18.2252 15.7907 18.2252C16.2703 18.2252 16.7239 18.0835 17.2813 17.7821V8.40458C17.2813 8.40458 17.384 8.39911 17.7075 8.29486C18.0765 8.17549 18.0926 7.84215 18.0926 7.48781Z" fill="black"/>
</svg>
