<svg width="60" height="92" viewBox="0 0 60 92" fill="none" xmlns="http://www.w3.org/2000/svg">
<path d="M16.1852 52.5H8.28974V18.699C5.77039 18.8807 10.2614 18.5173 8.28974 18.699L8.28988 15.5869V11.6874L8.28982 8.44648L8.28974 1.66663C18.9911 2.49318 15.4667 2.07987 25.2154 2.07987C48.6564 2.07987 60 11.2482 60 25.0594C60 41.7782 45.103 52.5 25.3863 52.5H16.1852ZM17.0759 17.7845L16.1852 37.5076H21.8811C32.2871 37.5076 38.2021 32.7827 38.2021 26.2406C38.2021 20.3345 33.0539 16.6092 23.1955 16.6092C21.3334 16.6092 19.4699 16.958 17.0759 17.7845Z" fill="black"/>
<path d="M22.4321 29.8928V69.4249C22.4321 72.2409 22.8437 73.5406 24.4901 73.7572C25.4162 73.8655 28.5823 72.7658 29.5084 72.4409L30.6957 72.8575C31.7247 78.5977 27.0626 92.4944 13.9943 91.6279C5.65947 91.0864 2.36669 85.0212 2.36669 73.324V29.8928H22.4321ZM0 12.1304C0 4.98213 5.24788 0 12.3479 0C19.448 0 24.6959 4.98213 24.6959 12.1304C24.6959 19.2787 19.448 24.2608 12.3479 24.2608C5.24788 24.2608 0 19.2787 0 12.1304Z" fill="black"/>
<circle cx="6.89998" cy="7.04171" r="3.33333" fill="#D5D5D5"/>
<circle cx="6.48332" cy="6.62504" r="2.91667" fill="white"/>
<rect x="6" y="21" width="12" height="46" rx="6" fill="white"/>
<rect x="8" y="23" width="8" height="42" rx="4" fill="black"/>
</svg>
